<svg width="70" height="70" viewBox="0 0 70 70" fill="none" xmlns="http://www.w3.org/2000/svg">
<path d="M13.339 26.4088C13.339 26.091 13.4238 25.805 13.5933 25.5508C14.6738 23.9405 15.9345 22.5739 17.3752 21.451C18.7948 20.3493 20.352 19.5124 22.047 18.9403C23.742 18.3682 25.5112 18.0822 27.3545 18.0822C29.1978 18.0822 30.9669 18.3682 32.6619 18.9403C34.3569 19.5124 35.9142 20.3493 37.3337 21.451C38.7744 22.5739 40.0351 23.9405 41.1157 25.5508C41.2852 25.805 41.3699 26.091 41.3699 26.4088C41.3699 26.9173 41.1792 27.3093 40.7978 27.5847C40.4165 27.8602 40.0563 27.9979 39.7173 27.9979C39.23 27.9979 38.8062 27.7754 38.446 27.3305C37.4926 26.1228 36.4227 25.1164 35.2362 24.3113C34.0709 23.5062 32.8208 22.9023 31.486 22.4998C30.1512 22.1184 28.774 21.9277 27.3545 21.9277C25.9349 21.9277 24.5471 22.1078 23.1911 22.468C21.8352 22.8494 20.5639 23.4426 19.3774 24.2477C18.2121 25.0528 17.1739 26.0804 16.2629 27.3305C15.9451 27.7754 15.5213 27.9979 14.9916 27.9979C14.6103 27.9979 14.2395 27.839 13.8793 27.5212C13.5191 27.2246 13.339 26.8538 13.339 26.4088Z" fill="#228B22"/>
<path d="M8.77311 21.8685C8.77311 21.4315 8.88964 21.0382 9.1227 20.6886C10.6085 18.4746 12.3419 16.5955 14.3229 15.0515C16.2748 13.5366 18.416 12.3858 20.7466 11.5993C23.0772 10.8127 25.5098 10.4194 28.0443 10.4194C30.5789 10.4194 33.0115 10.8127 35.3421 11.5993C37.6727 12.3858 39.8139 13.5366 41.7658 15.0515C43.7468 16.5955 45.4802 18.4746 46.966 20.6886C47.199 21.0382 47.3156 21.4315 47.3156 21.8685C47.3156 22.5677 47.0534 23.1066 46.529 23.4854C46.0046 23.8641 45.5094 24.0535 45.0432 24.0535C44.3732 24.0535 43.7905 23.7476 43.2953 23.1358C41.9843 21.4752 40.5131 20.0914 38.8817 18.9844C37.2794 17.8773 35.5606 17.0471 33.7252 16.4935C31.8898 15.9691 29.9962 15.707 28.0443 15.707C26.0925 15.707 24.1843 15.9546 22.3198 16.4498C20.4553 16.9742 18.7073 17.7899 17.0759 18.897C15.4736 20.004 14.0461 21.4169 12.7934 23.1358C12.3564 23.7476 11.7738 24.0535 11.0455 24.0535C10.5211 24.0535 10.0112 23.835 9.51599 23.398C9.02074 22.9901 8.77311 22.4803 8.77311 21.8685Z" fill="#228B22"/>
<path d="M3.87774 16.3008C3.87774 15.7446 4.02605 15.2441 4.32267 14.7991C6.21364 11.9812 8.41978 9.58968 10.9411 7.62455C13.4253 5.6965 16.1505 4.23193 19.1167 3.23082C22.083 2.22972 25.179 1.72917 28.4048 1.72917C31.6305 1.72917 34.7265 2.22972 37.6928 3.23082C40.659 4.23193 43.3842 5.6965 45.8684 7.62455C48.3897 9.58968 50.5959 11.9812 52.4868 14.7991C52.7835 15.2441 52.9318 15.7446 52.9318 16.3008C52.9318 17.1906 52.5981 17.8766 51.9307 18.3586C51.2633 18.8406 50.633 19.0816 50.0397 19.0816C49.1869 19.0816 48.4454 18.6923 47.815 17.9137C46.1465 15.8002 44.2741 14.039 42.1977 12.6301C40.1584 11.2211 37.9709 10.1644 35.6349 9.45991C33.299 8.79251 30.889 8.45881 28.4048 8.45881C25.9205 8.45881 23.4919 8.77397 21.119 9.40429C18.746 10.0717 16.5213 11.1099 14.4449 12.5188C12.4057 13.9278 10.5888 15.7261 8.99449 17.9137C8.43832 18.6923 7.69676 19.0816 6.76981 19.0816C6.10241 19.0816 5.45355 18.8035 4.82322 18.2474C4.1929 17.7283 3.87774 17.0794 3.87774 16.3008Z" fill="#228B22"/>
<path d="M28.444 44.8125V39.648H42.5071C42.6396 41.8727 42.4144 43.9517 41.8318 45.8851C41.2491 47.8184 40.3487 49.5267 39.1304 51.0098C37.9121 52.4929 36.3893 53.6582 34.5619 54.5057C32.7345 55.3267 30.6422 55.7372 28.2851 55.7372C26.0604 55.7372 24.0212 55.3929 22.1673 54.7043C20.3134 53.9892 18.7111 52.9828 17.3604 51.6851C16.0097 50.3609 14.9503 48.7983 14.1823 46.9974C13.4407 45.17 13.0699 43.1572 13.0699 40.959C13.0699 38.7608 13.454 36.7745 14.222 35.0001C14.99 33.1991 16.0759 31.6631 17.4796 30.3918C18.8832 29.1206 20.5252 28.1407 22.4056 27.4521C24.286 26.7635 26.3253 26.4192 28.5235 26.4192C30.4833 26.4192 32.2445 26.6973 33.8071 27.2534C35.3696 27.8096 36.7468 28.5909 37.9386 29.5973C39.1569 30.5772 40.203 31.716 41.077 33.0138L35.118 36.1124C34.4824 35.0001 33.6217 34.0864 32.5358 33.3713C31.4765 32.6297 30.139 32.259 28.5235 32.259C26.9874 32.259 25.5705 32.6032 24.2728 33.2918C23.0015 33.9804 21.9819 34.9736 21.2138 36.2713C20.4723 37.5425 20.1015 39.1051 20.1015 40.959C20.1015 42.7864 20.459 44.3755 21.1741 45.7262C21.9157 47.0504 22.9088 48.0833 24.1536 48.8248C25.4248 49.5399 26.8815 49.8974 28.5235 49.8974C29.5299 49.8974 30.4436 49.7783 31.2646 49.5399C32.0856 49.2751 32.7874 48.9175 33.3701 48.4673C33.9527 47.9906 34.4427 47.4476 34.84 46.8385C35.2637 46.2029 35.5948 45.5275 35.8331 44.8125H28.444Z" fill="#228B22"/>
</svg>
