<svg width="59" height="39" viewBox="0 0 59 39" fill="none" xmlns="http://www.w3.org/2000/svg">
<path d="M7.088 15.8126C7.088 15.6526 7.13067 15.5086 7.216 15.3806C7.76 14.57 8.39467 13.882 9.12 13.3166C9.83467 12.762 10.6187 12.3406 11.472 12.0526C12.3253 11.7646 13.216 11.6206 14.144 11.6206C15.072 11.6206 15.9627 11.7646 16.816 12.0526C17.6693 12.3406 18.4533 12.762 19.168 13.3166C19.8933 13.882 20.528 14.57 21.072 15.3806C21.1573 15.5086 21.2 15.6526 21.2 15.8126C21.2 16.0686 21.104 16.266 20.912 16.4046C20.72 16.5433 20.5387 16.6126 20.368 16.6126C20.1227 16.6126 19.9093 16.5006 19.728 16.2766C19.248 15.6686 18.7093 15.162 18.112 14.7566C17.5253 14.3513 16.896 14.0473 16.224 13.8446C15.552 13.6526 14.8587 13.5566 14.144 13.5566C13.4293 13.5566 12.7307 13.6473 12.048 13.8286C11.3653 14.0206 10.7253 14.3193 10.128 14.7246C9.54133 15.13 9.01867 15.6473 8.56 16.2766C8.4 16.5006 8.18667 16.6126 7.92 16.6126C7.728 16.6126 7.54133 16.5326 7.36 16.3726C7.17867 16.2233 7.088 16.0366 7.088 15.8126Z" fill="black"/>
<path d="M4.996 12.4924C4.996 12.2724 5.05467 12.0744 5.172 11.8984C5.92 10.7837 6.79267 9.83769 7.79 9.06036C8.77267 8.29769 9.85067 7.71836 11.024 7.32236C12.1973 6.92636 13.422 6.72836 14.698 6.72836C15.974 6.72836 17.1987 6.92636 18.372 7.32236C19.5453 7.71836 20.6233 8.29769 21.606 9.06036C22.6033 9.83769 23.476 10.7837 24.224 11.8984C24.3413 12.0744 24.4 12.2724 24.4 12.4924C24.4 12.8444 24.268 13.1157 24.004 13.3064C23.74 13.497 23.4907 13.5924 23.256 13.5924C22.9187 13.5924 22.6253 13.4384 22.376 13.1304C21.716 12.2944 20.9753 11.5977 20.154 11.0404C19.3473 10.483 18.482 10.065 17.558 9.78636C16.634 9.52236 15.6807 9.39036 14.698 9.39036C13.7153 9.39036 12.7547 9.51503 11.816 9.76436C10.8773 10.0284 9.99733 10.439 9.176 10.9964C8.36933 11.5537 7.65067 12.265 7.02 13.1304C6.8 13.4384 6.50667 13.5924 6.14 13.5924C5.876 13.5924 5.61933 13.4824 5.37 13.2624C5.12067 13.057 4.996 12.8004 4.996 12.4924Z" fill="black"/>
<path d="M1.904 8.67209C1.904 8.39209 1.97867 8.14009 2.128 7.91609C3.08 6.49743 4.19067 5.29343 5.46 4.30409C6.71067 3.33343 8.08267 2.59609 9.576 2.09209C11.0693 1.58809 12.628 1.33609 14.252 1.33609C15.876 1.33609 17.4347 1.58809 18.928 2.09209C20.4213 2.59609 21.7933 3.33343 23.044 4.30409C24.3133 5.29343 25.424 6.49743 26.376 7.91609C26.5253 8.14009 26.6 8.39209 26.6 8.67209C26.6 9.12009 26.432 9.46543 26.096 9.70809C25.76 9.95076 25.4427 10.0721 25.144 10.0721C24.7147 10.0721 24.3413 9.87609 24.024 9.48409C23.184 8.42009 22.2413 7.53343 21.196 6.82409C20.1693 6.11476 19.068 5.58276 17.892 5.22809C16.716 4.89209 15.5027 4.72409 14.252 4.72409C13.0013 4.72409 11.7787 4.88276 10.584 5.20009C9.38933 5.53609 8.26933 6.05876 7.224 6.76809C6.19733 7.47743 5.28267 8.38276 4.48 9.48409C4.2 9.87609 3.82667 10.0721 3.36 10.0721C3.024 10.0721 2.69733 9.93209 2.38 9.65209C2.06267 9.39076 1.904 9.06409 1.904 8.67209Z" fill="black"/>
<path d="M14.7755 25.94V23.34H21.8555C21.9221 24.46 21.8088 25.5067 21.5155 26.48C21.2221 27.4533 20.7688 28.3133 20.1555 29.06C19.5421 29.8067 18.7755 30.3933 17.8555 30.82C16.9355 31.2333 15.8821 31.44 14.6955 31.44C13.5755 31.44 12.5488 31.2667 11.6155 30.92C10.6821 30.56 9.87547 30.0533 9.19547 29.4C8.51547 28.7333 7.98214 27.9467 7.59547 27.04C7.22214 26.12 7.03547 25.1067 7.03547 24C7.03547 22.8933 7.2288 21.8933 7.61547 21C8.00214 20.0933 8.5488 19.32 9.25547 18.68C9.96214 18.04 10.7888 17.5467 11.7355 17.2C12.6821 16.8533 13.7088 16.68 14.8155 16.68C15.8021 16.68 16.6888 16.82 17.4755 17.1C18.2621 17.38 18.9555 17.7733 19.5555 18.28C20.1688 18.7733 20.6955 19.3467 21.1355 20L18.1355 21.56C17.8155 21 17.3821 20.54 16.8355 20.18C16.3021 19.8067 15.6288 19.62 14.8155 19.62C14.0421 19.62 13.3288 19.7933 12.6755 20.14C12.0355 20.4867 11.5221 20.9867 11.1355 21.64C10.7621 22.28 10.5755 23.0667 10.5755 24C10.5755 24.92 10.7555 25.72 11.1155 26.4C11.4888 27.0667 11.9888 27.5867 12.6155 27.96C13.2555 28.32 13.9888 28.5 14.8155 28.5C15.3221 28.5 15.7821 28.44 16.1955 28.32C16.6088 28.1867 16.9621 28.0067 17.2555 27.78C17.5488 27.54 17.7955 27.2667 17.9955 26.96C18.2088 26.64 18.3755 26.3 18.4955 25.94H14.7755Z" fill="black"/>
<path d="M23.1009 20.6H25.1889V29H23.1009V20.6ZM26.1009 29H24.4449V27.2H26.0289C26.3489 27.2 26.6569 27.16 26.9529 27.08C27.2569 27 27.5209 26.868 27.7449 26.684C27.9769 26.5 28.1609 26.256 28.2969 25.952C28.4329 25.64 28.5009 25.256 28.5009 24.8C28.5009 24.344 28.4329 23.964 28.2969 23.66C28.1609 23.348 27.9769 23.1 27.7449 22.916C27.5209 22.732 27.2569 22.6 26.9529 22.52C26.6569 22.44 26.3489 22.4 26.0289 22.4H24.4449V20.6H26.1009C27.0209 20.6 27.8169 20.772 28.4889 21.116C29.1609 21.46 29.6809 21.944 30.0489 22.568C30.4169 23.192 30.6009 23.936 30.6009 24.8C30.6009 25.656 30.4169 26.4 30.0489 27.032C29.6809 27.656 29.1609 28.14 28.4889 28.484C27.8169 28.828 27.0209 29 26.1009 29ZM33.5697 24.8C33.5697 25.296 33.6657 25.736 33.8577 26.12C34.0577 26.496 34.3337 26.792 34.6857 27.008C35.0457 27.224 35.4657 27.332 35.9457 27.332C36.4177 27.332 36.8297 27.224 37.1817 27.008C37.5417 26.792 37.8177 26.496 38.0097 26.12C38.2097 25.736 38.3097 25.296 38.3097 24.8C38.3097 24.304 38.2137 23.868 38.0217 23.492C37.8297 23.108 37.5577 22.808 37.2057 22.592C36.8537 22.376 36.4337 22.268 35.9457 22.268C35.4657 22.268 35.0457 22.376 34.6857 22.592C34.3337 22.808 34.0577 23.108 33.8577 23.492C33.6657 23.868 33.5697 24.304 33.5697 24.8ZM31.4217 24.8C31.4217 24.152 31.5337 23.56 31.7577 23.024C31.9897 22.488 32.3097 22.024 32.7177 21.632C33.1257 21.24 33.6057 20.94 34.1577 20.732C34.7097 20.516 35.3057 20.408 35.9457 20.408C36.5937 20.408 37.1897 20.516 37.7337 20.732C38.2857 20.94 38.7657 21.24 39.1737 21.632C39.5817 22.024 39.8977 22.488 40.1217 23.024C40.3457 23.56 40.4577 24.152 40.4577 24.8C40.4577 25.448 40.3457 26.044 40.1217 26.588C39.9057 27.132 39.5937 27.604 39.1857 28.004C38.7857 28.404 38.3097 28.716 37.7577 28.94C37.2057 29.156 36.6017 29.264 35.9457 29.264C35.2817 29.264 34.6737 29.156 34.1217 28.94C33.5697 28.716 33.0897 28.404 32.6817 28.004C32.2817 27.604 31.9697 27.132 31.7457 26.588C31.5297 26.044 31.4217 25.448 31.4217 24.8ZM43.9171 24.716L43.4131 29H41.2771L42.6331 20.18L46.2091 25.304L49.7971 20.18L51.1531 29H49.0171L48.5131 24.716L46.2091 28.22L43.9171 24.716ZM53.7886 29V27.332H58.0246V29H53.7886ZM53.7886 22.268V20.6H58.0246V22.268H53.7886ZM53.7886 25.4V23.768H57.7846V25.4H53.7886ZM52.4446 20.6H54.3886V29H52.4446V20.6Z" fill="black"/>
</svg>
